<?xml version="1.0" standalone="no"?>
<!DOCTYPE svg PUBLIC "-//W3C//DTD SVG 20010904//EN"
 "http://www.w3.org/TR/2001/REC-SVG-20010904/DTD/svg10.dtd">
<svg version="1.0" xmlns="http://www.w3.org/2000/svg"
 width="1280.000000pt" height="1280.000000pt" viewBox="0 0 1280.000000 1280.000000"
 preserveAspectRatio="xMidYMid meet">
<metadata>
Created by potrace 1.11, written by Peter Selinger 2001-2013
</metadata>
<g transform="translate(0.000000,1280.000000) scale(0.100000,-0.100000)"
fill="#000000" stroke="none">
<path d="M0 6400 l0 -6400 3505 0 3505 0 0 1240 0 1240 678 0 c831 0 932 8
1206 97 564 182 1013 694 1167 1328 43 180 59 329 59 555 0 226 -16 375 -60
557 -139 576 -536 1062 -1037 1269 -176 73 -355 116 -563 134 -86 8 -459 10
-1190 8 -1185 -4 -1106 1 -1255 -73 -139 -68 -232 -166 -287 -303 l-23 -57 -3
-2417 -2 -2418 -160 0 -160 0 0 870 0 870 -545 0 -545 0 0 -870 0 -870 -155 0
c-141 0 -155 2 -156 18 0 9 -1 635 -1 1389 l-1 1373 -548 0 -549 0 0 -1278 c0
-702 0 -1328 0 -1389 l0 -113 -160 0 -160 0 0 1898 c0 1043 0 1904 0 1912 0
13 -65 15 -537 14 -296 -1 -541 -2 -545 -3 -3 0 -6 -848 -7 -1884 0 -1035 0
-1894 -1 -1909 l0 -28 -155 0 -155 0 0 5240 0 5240 5240 0 5240 0 0 -5820 0
-5820 580 0 580 0 0 6400 0 6400 -6400 0 -6400 0 0 -6400z m8361 -1300 c177
-33 314 -180 376 -400 14 -51 18 -102 18 -240 0 -152 -3 -185 -23 -253 -62
-216 -186 -354 -352 -391 -59 -14 -164 -16 -719 -16 l-651 0 0 655 0 655 649
0 c392 0 670 -4 702 -10z"/>
</g>
</svg>
